<svg width="25" height="22" viewBox="0 0 25 22" fill="none" xmlns="http://www.w3.org/2000/svg">
<path d="M22.8694 0.194239C22.8694 0.194239 25.182 -0.758043 24.9885 1.55446C24.9248 2.50674 24.3468 5.84004 23.8968 9.44488L22.3551 20.1243C22.3551 20.1243 22.2266 21.6888 21.07 21.9609C19.9141 22.2325 18.1795 21.0087 17.8581 20.7365C17.6009 20.5322 13.0402 17.4711 11.4342 15.9751C10.9842 15.5665 10.4699 14.7506 11.4985 13.7984L18.2438 6.99598C19.0146 6.17884 19.7855 4.27428 16.5735 6.58741L7.57941 13.0491C7.57941 13.0491 6.55143 13.7298 4.62462 13.1176L0.448394 11.7568C0.448394 11.7568 -1.09329 10.7366 1.54067 9.71643C7.96513 6.51953 15.867 3.25474 22.8688 0.19361" fill="#F7F7F7"/>
</svg>
