<svg width="34" height="18" viewBox="0 0 34 18" fill="none" xmlns="http://www.w3.org/2000/svg">
<path fill-rule="evenodd" clip-rule="evenodd" d="M33.2201 1.21886C33.4553 0.516857 33.2201 0 32.0939 0H28.3752C27.4289 0 26.9926 0.446143 26.756 0.938571C26.756 0.938571 24.8648 5.04771 22.186 7.71686C21.319 8.49086 20.9251 8.73643 20.452 8.73643C20.2154 8.73643 19.8598 8.49086 19.8598 7.78757V1.21886C19.8598 0.375428 19.5992 0 18.8115 0H12.9636C12.3729 0 12.0173 0.390857 12.0173 0.762428C12.0173 1.56086 13.3575 1.746 13.4949 3.99343V8.87657C13.4949 9.94757 13.2781 10.1417 12.805 10.1417C11.5442 10.1417 8.47716 6.01329 6.65678 1.28957C6.30403 0.370285 5.94704 0 4.99648 0H1.27497C0.212496 0 0 0.446143 0 0.938571C0 1.81543 1.26081 6.17143 5.87196 11.9327C8.94606 15.867 13.2739 18 17.2164 18C19.5808 18 19.8726 17.5269 19.8726 16.7104V13.7366C19.8726 12.789 20.0964 12.6 20.8458 12.6C21.3983 12.6 22.3432 12.8469 24.5503 14.7433C27.0719 16.992 27.487 18 28.9065 18H32.6251C33.6876 18 34.2203 17.5269 33.9143 16.5909C33.5771 15.66 32.373 14.3087 30.7764 12.7054C29.9095 11.7926 28.609 10.809 28.2137 10.3166C27.6627 9.68529 27.8199 9.40371 28.2137 8.84186C28.2137 8.84186 32.747 3.15129 33.2187 1.21886" fill="#F7F7F7"/>
</svg>
